<svg width="20" height="24" viewBox="0 0 20 24" fill="none" xmlns="http://www.w3.org/2000/svg">
<path d="M6.37365 23.7437C5.58818 23.701 4.84904 23.3585 4.30871 22.7868C3.66237 22.165 3.08559 21.4747 2.58856 20.7281C1.81216 19.6163 1.19844 18.3994 0.765964 17.1141C0.276103 15.7315 0.0182042 14.2774 0.00269833 12.8106C-0.0349448 11.3714 0.321884 9.94922 1.03454 8.69823C1.55618 7.79642 2.30022 7.04334 3.19567 6.51086C4.08121 5.98066 5.09174 5.69526 6.12381 5.68389C6.90184 5.72992 7.6664 5.90775 8.38488 6.20981C8.9577 6.46185 9.56062 6.63903 10.1787 6.73697C10.8608 6.59407 11.5273 6.38488 12.1687 6.11237C12.9278 5.81595 13.7315 5.64997 14.546 5.62143C14.6546 5.62143 14.7621 5.62143 14.8658 5.63392C16.6515 5.68571 18.3125 6.56231 19.3629 8.00741C17.6927 8.9004 16.6671 10.6573 16.7108 12.5508C16.6943 13.9868 17.2931 15.3613 18.356 16.3271C18.8344 16.7829 19.3914 17.1481 20 17.4052C19.8751 17.78 19.7314 18.1422 19.579 18.507C19.2326 19.3131 18.8053 20.082 18.3036 20.8018C17.8299 21.5228 17.2787 22.1897 16.6596 22.7905C16.0945 23.3513 15.3412 23.6821 14.546 23.7187C13.8718 23.6888 13.2096 23.5306 12.5947 23.2527C11.9316 22.9639 11.2191 22.8056 10.496 22.7868C9.75262 22.8014 9.01893 22.9587 8.33491 23.2502C7.74409 23.5168 7.11287 23.6827 6.46734 23.7412L6.37365 23.7437ZM10.3087 5.62143C10.215 5.62143 10.1213 5.62143 10.0276 5.61019C10.0079 5.46149 9.99744 5.31171 9.99635 5.16172C10.0372 3.91393 10.5249 2.72232 11.3705 1.80385C11.8431 1.27617 12.4159 0.84771 13.0557 0.543405C13.6526 0.236102 14.305 0.0513405 14.9744 0C14.9932 0.163646 14.9932 0.323545 14.9932 0.475948C14.9755 1.7041 14.514 2.88439 13.694 3.79884C12.8902 4.87663 11.6509 5.54382 10.3087 5.62143Z" fill="white"/>
</svg>
