<svg width="14" height="14" viewBox="0 0 14 14" fill="none" xmlns="http://www.w3.org/2000/svg">
<path d="M0 7.04213C0.00081445 10.5069 2.50479 13.457 5.90569 14V9.07758H4.12986V7.04213H5.90779V5.49265C5.82831 4.75843 6.07755 4.02669 6.58792 3.49588C7.09828 2.96507 7.81687 2.69021 8.5488 2.74584C9.07416 2.75438 9.5982 2.80146 10.1167 2.8867V4.6186H9.23198C8.92738 4.57846 8.62115 4.67968 8.39955 4.89375C8.17795 5.10782 8.06496 5.41157 8.09242 5.71943V7.04213H10.0321L9.72196 9.07829H8.09242V14C11.7704 13.4151 14.3496 10.0353 13.9614 6.30899C13.5732 2.5827 10.3535 -0.185546 6.63495 0.00972283C2.91635 0.204992 0.000591113 3.29542 0 7.04213Z" fill="white"/>
</svg>
