<svg width="20" height="22" viewBox="0 0 20 22" fill="none" xmlns="http://www.w3.org/2000/svg">
<path d="M1.70623 21.9092C1.49845 21.9125 1.29189 21.877 1.09717 21.8044L10.9079 11.99L14.1554 15.2412L2.88172 21.5754C2.5246 21.7847 2.12005 21.8996 1.70623 21.9092ZM0.288331 21.0991C0.0888982 20.7379 -0.0103535 20.33 0.000854247 19.9175V2.00503C-0.0007921 1.73312 0.0403137 1.46265 0.122667 1.20351L10.1515 11.2347L0.284677 21.1015L0.288331 21.0991ZM15.1239 14.6942L11.6632 11.236L15.4795 7.42081L18.8696 9.32473C19.5203 9.61596 19.9558 10.2442 20 10.9558C19.956 11.6681 19.52 12.297 18.8684 12.5881L15.1239 14.6942ZM10.9079 10.4759L0.748782 0.31793C1.02771 0.111674 1.36541 0.000247242 1.71232 0C2.12202 0.0145477 2.52172 0.130482 2.87562 0.33742L14.5099 6.8763L10.9079 10.4759Z" fill="white"/>
</svg>
