<svg width="14" height="14" viewBox="0 0 14 14" fill="none" xmlns="http://www.w3.org/2000/svg">
<path d="M6.99611 14C5.08384 14 4.85841 13.9899 4.11216 13.9573C3.53022 13.9382 2.95581 13.8201 2.41366 13.608C1.47564 13.2435 0.733924 12.5026 0.369239 11.5658C0.165035 11.0224 0.0548945 10.4484 0.0435314 9.86815C0 9.12453 0 8.88079 0 6.98603C0 5.07108 0.0101055 4.84753 0.0435314 4.10623C0.0551431 3.5268 0.16528 2.95354 0.369239 2.41096C0.733528 1.47291 1.47645 0.731338 2.41599 0.367931C2.95908 0.163164 3.53331 0.0528953 4.11371 0.0419162C4.85608 0 5.10017 0 6.99611 0C8.92393 0 9.14547 0.0100909 9.88007 0.0419162C10.462 0.0529903 11.0377 0.163248 11.5825 0.367931C12.5217 0.73175 13.2645 1.47318 13.6292 2.41096C13.8369 2.96145 13.9476 3.54366 13.9565 4.13185C14 4.87547 14 5.11843 14 7.01242C14 8.90641 13.9891 9.1548 13.9565 9.88989C13.9449 10.4707 13.8345 11.0452 13.63 11.589C13.2644 12.5265 12.5215 13.2677 11.5825 13.6321C11.0385 13.8356 10.4639 13.9456 9.88318 13.9573C9.14081 14 8.8975 14 6.99611 14ZM6.96968 1.22876C5.0683 1.22876 4.87085 1.23808 4.12848 1.27146C3.68539 1.27732 3.24657 1.35897 2.83109 1.51286C2.21758 1.74729 1.7321 2.23009 1.49484 2.84176C1.33953 3.26115 1.25775 3.70413 1.25308 4.15125C1.21188 4.90342 1.21188 5.10058 1.21188 6.98603C1.21188 8.84897 1.21888 9.07485 1.25308 9.82235C1.26004 10.265 1.34177 10.7032 1.49484 11.1187C1.73245 11.7299 2.21784 12.2124 2.83109 12.4468C3.24629 12.6017 3.68528 12.6834 4.12848 12.6882C4.88096 12.7316 5.07918 12.7316 6.96968 12.7316C8.87651 12.7316 9.07396 12.7223 9.81011 12.6882C10.2535 12.6828 10.6927 12.6011 11.1083 12.4468C11.7181 12.2103 12.2004 11.729 12.4375 11.1202C12.5925 10.7005 12.6743 10.2573 12.6793 9.80993H12.6878C12.7213 9.06786 12.7213 8.86993 12.7213 6.97361C12.7213 5.07729 12.7127 4.8778 12.6793 4.1365C12.6723 3.69441 12.5906 3.25666 12.4375 2.84176C12.2009 2.23209 11.7185 1.74984 11.1083 1.51286C10.6927 1.35819 10.2535 1.27652 9.81011 1.27146C9.05841 1.22876 8.86174 1.22876 6.96968 1.22876ZM6.99611 10.5714C5.54247 10.5724 4.23142 9.69873 3.67441 8.35797C3.11739 7.01722 3.42414 5.47342 4.45157 4.44658C5.47901 3.41973 7.02477 3.1121 8.36794 3.66715C9.71111 4.22219 10.5871 5.5306 10.5875 6.98215C10.5853 8.96235 8.97917 10.5676 6.99611 10.5714ZM6.99611 4.65192C5.70816 4.65192 4.66408 5.6945 4.66408 6.98059C4.66408 8.26669 5.70816 9.30927 6.99611 9.30927C8.28406 9.30927 9.32815 8.26669 9.32815 6.98059C9.32516 5.69574 8.28282 4.65491 6.99611 4.65192ZM10.7274 4.09847C10.2652 4.09676 9.89165 3.72168 9.89251 3.26015C9.89336 2.79862 10.2683 2.42493 10.7305 2.42493C11.1927 2.42493 11.5676 2.79862 11.5685 3.26015C11.5687 3.48282 11.4801 3.6964 11.3222 3.85371C11.1644 4.01101 10.9504 4.09909 10.7274 4.09847Z" fill="white"/>
</svg>
